<?xml version="1.0" encoding="utf-8"?>
<!-- Generator: Adobe Illustrator 22.1.0, SVG Export Plug-In . SVG Version: 6.00 Build 0)  -->
<svg version="1.1" id="Mail_w_x2F__circle" xmlns="http://www.w3.org/2000/svg" xmlns:xlink="http://www.w3.org/1999/xlink" x="0px"
	 y="0px" viewBox="0 0 18 18" style="enable-background:new 0 0 18 18;" xml:space="preserve">
<style type="text/css">
	.st0{fill:#505D89;}
</style>
<path class="st0" d="M17.4,2.8C17.3,2.8,17.3,2.8,17.4,2.8l-16.6,0c-0.1,0-0.2,0-0.2,0.1c0,0,0,0-0.1,0c0,0-0.1,0-0.1,0c0,0,0,0,0,0
	C0.1,3,0,3.3,0,3.5v0.2v0.1v10.7c0,0.5,0.3,0.8,0.8,0.8h16.4c0.5,0,0.8-0.3,0.8-0.8V3.8V3.7V3.5C18,3.1,17.7,2.8,17.4,2.8z
	 M14.7,4.4L9,8.5L3.2,4.4H14.7z M16.4,13.6H1.5V5.2l7,4.9c0.2,0.2,0.6,0.2,0.9,0l7-4.9V13.6z"/>
</svg>
