<?xml version="1.0" encoding="utf-8"?>
<!-- Generator: Adobe Illustrator 22.1.0, SVG Export Plug-In . SVG Version: 6.00 Build 0)  -->
<svg version="1.1" id="Dribbble" xmlns="http://www.w3.org/2000/svg" xmlns:xlink="http://www.w3.org/1999/xlink" x="0px" y="0px"
	 viewBox="0 0 18 18" style="enable-background:new 0 0 18 18;" xml:space="preserve">
<style type="text/css">
	.st0{fill:#505D89;}
</style>
<path class="st0" d="M9,0C4,0,0,4,0,9c0,5,4,9,9,9c5,0,9-4,9-9C18,4,14,0,9,0z M13.3,15.1c-0.1-0.7-0.5-2.7-1.4-5.1
	c1.9-0.3,3.6,0.1,4.3,0.3c0.1,0,0.1,0,0.2,0C16,12.3,14.9,14,13.3,15.1z M11.4,8.5c0,0,0-0.1,0-0.1c0-0.1-0.1-0.2-0.1-0.2
	c-0.1-0.3-0.3-0.6-0.4-0.9c2.5-1,3.7-2.4,4.1-2.9c1,1.2,1.6,2.8,1.6,4.4C16,8.6,14.6,8.4,13,8.4C12.5,8.4,11.9,8.4,11.4,8.5z
	 M4.5,14.9c1.2-2,3.2-3.6,5.7-4.5c1.1,2.6,1.5,4.8,1.6,5.6c-0.9,0.4-1.9,0.5-2.9,0.5c-1.5,0-3-0.5-4.3-1.4h0L4.5,14.9z M10,5.9
	c-1-1.8-2-3.3-2.5-4C7.5,1.8,7.4,1.7,7.4,1.7C7.9,1.6,8.5,1.5,9,1.5c2.2,0,3.8,1,4.8,1.8C13.6,3.7,12.4,5,10,5.9z M9.1,7.9
	c0.1,0.2,0.2,0.3,0.2,0.5c0.1,0.2,0.2,0.3,0.2,0.5c0,0,0,0,0,0c0,0-0.1,0-0.1,0l0,0c-2.4,0.7-4.6,2.5-6.1,4.9
	C2.2,12.5,1.5,10.7,1.5,9V8.9C2.5,8.9,5.8,8.9,9.1,7.9z M5.7,2.3C6,2.6,7.1,4.2,8.4,6.4c-3.2,0.8-6,0.9-6.7,0.9
	C2.2,5.1,3.7,3.2,5.7,2.3z"/>
</svg>
